<?xml version="1.0" encoding="UTF-8"?>
<svg version="1.1" xmlns="http://www.w3.org/2000/svg" width="300" height="300">
<path d="M0 0 C99 0 198 0 300 0 C300 99 300 198 300 300 C201 300 102 300 0 300 C0 201 0 102 0 0 Z " fill="#FEFEFE" transform="translate(0,0)"/>
<path d="M0 0 C2.97 0 5.94 0 9 0 C9 6.6 9 13.2 9 20 C15.6 20 22.2 20 29 20 C29 26.27 29 32.54 29 39 C25.7 39 22.4 39 19 39 C19 42.3 19 45.6 19 49 C22.3 49 25.6 49 29 49 C29 55.27 29 61.54 29 68 C31.97 68 34.94 68 38 68 C38 64.7 38 61.4 38 58 C41.3 58 44.6 58 48 58 C48 55.03 48 52.06 48 49 C51.3 49 54.6 49 58 49 C58 45.7 58 42.4 58 39 C60.97 39 63.94 39 67 39 C67 35.7 67 32.4 67 29 C70.3 29 73.6 29 77 29 C77 32.3 77 35.6 77 39 C80.3 39 83.6 39 87 39 C87 42.3 87 45.6 87 49 C96.57 49 106.14 49 116 49 C116 45.7 116 42.4 116 39 C118.97 39 121.94 39 125 39 C125 42.3 125 45.6 125 49 C128.3 49 131.6 49 135 49 C135 51.97 135 54.94 135 58 C138.3 58 141.6 58 145 58 C145 61.3 145 64.6 145 68 C141.7 68 138.4 68 135 68 C135 80.87 135 93.74 135 107 C138.3 107 141.6 107 145 107 C145 109.97 145 112.94 145 116 C141.7 116 138.4 116 135 116 C135 119.3 135 122.6 135 126 C138.3 126 141.6 126 145 126 C145 129.3 145 132.6 145 136 C138.4 136 131.8 136 125 136 C125 129.4 125 122.8 125 116 C122.03 116 119.06 116 116 116 C116 109.73 116 103.46 116 97 C112.7 97 109.4 97 106 97 C106 100.3 106 103.6 106 107 C102.7 107 99.4 107 96 107 C96 103.7 96 100.4 96 97 C93.03 97 90.06 97 87 97 C87 87.43 87 77.86 87 68 C80.4 68 73.8 68 67 68 C67 71.3 67 74.6 67 78 C64.03 78 61.06 78 58 78 C58 80.97 58 83.94 58 87 C64.27 87 70.54 87 77 87 C77 90.3 77 93.6 77 97 C73.7 97 70.4 97 67 97 C67 103.27 67 109.54 67 116 C73.6 116 80.2 116 87 116 C87 122.6 87 129.2 87 136 C77.43 136 67.86 136 58 136 C58 132.7 58 129.4 58 126 C54.7 126 51.4 126 48 126 C48 122.7 48 119.4 48 116 C51.3 116 54.6 116 58 116 C58 113.03 58 110.06 58 107 C51.4 107 44.8 107 38 107 C38 109.97 38 112.94 38 116 C35.03 116 32.06 116 29 116 C29 122.6 29 129.2 29 136 C25.7 136 22.4 136 19 136 C19 129.4 19 122.8 19 116 C12.73 116 6.46 116 0 116 C0 119.3 0 122.6 0 126 C2.97 126 5.94 126 9 126 C9 129.3 9 132.6 9 136 C-0.57 136 -10.14 136 -20 136 C-20 132.7 -20 129.4 -20 126 C-16.7 126 -13.4 126 -10 126 C-10 122.7 -10 119.4 -10 116 C-16.27 116 -22.54 116 -29 116 C-29 113.03 -29 110.06 -29 107 C-26.03 107 -23.06 107 -20 107 C-20 103.7 -20 100.4 -20 97 C-22.97 97 -25.94 97 -29 97 C-29 90.73 -29 84.46 -29 78 C-26.03 78 -23.06 78 -20 78 C-20 74.7 -20 71.4 -20 68 C-22.97 68 -25.94 68 -29 68 C-29 61.73 -29 55.46 -29 49 C-26.03 49 -23.06 49 -20 49 C-20 42.4 -20 35.8 -20 29 C-26.27 29 -32.54 29 -39 29 C-39 26.03 -39 23.06 -39 20 C-32.73 20 -26.46 20 -20 20 C-20 16.7 -20 13.4 -20 10 C-13.4 10 -6.8 10 0 10 C0 6.7 0 3.4 0 0 Z " fill="#000000" transform="translate(117,155)"/>
<path d="M0 0 C3.3 0 6.6 0 10 0 C10 3.3 10 6.6 10 10 C12.97 10 15.94 10 19 10 C19 16.27 19 22.54 19 29 C22.3 29 25.6 29 29 29 C29 32.3 29 35.6 29 39 C32.3 39 35.6 39 39 39 C39 41.97 39 44.94 39 48 C35.7 48 32.4 48 29 48 C29 54.6 29 61.2 29 68 C32.3 68 35.6 68 39 68 C39 70.97 39 73.94 39 77 C35.7 77 32.4 77 29 77 C29 80.3 29 83.6 29 87 C32.3 87 35.6 87 39 87 C39 90.3 39 93.6 39 97 C45.27 97 51.54 97 58 97 C58 99.97 58 102.94 58 106 C70.87 106 83.74 106 97 106 C97 109.3 97 112.6 97 116 C93.7 116 90.4 116 87 116 C87 119.3 87 122.6 87 126 C80.73 126 74.46 126 68 126 C68 135.57 68 145.14 68 155 C58.43 155 48.86 155 39 155 C39 151.7 39 148.4 39 145 C35.7 145 32.4 145 29 145 C29 141.7 29 138.4 29 135 C25.7 135 22.4 135 19 135 C19 138.3 19 141.6 19 145 C16.03 145 13.06 145 10 145 C10 148.3 10 151.6 10 155 C6.7 155 3.4 155 0 155 C0 157.97 0 160.94 0 164 C-3.3 164 -6.6 164 -10 164 C-10 167.3 -10 170.6 -10 174 C-12.97 174 -15.94 174 -19 174 C-19 167.73 -19 161.46 -19 155 C-22.3 155 -25.6 155 -29 155 C-29 151.7 -29 148.4 -29 145 C-25.7 145 -22.4 145 -19 145 C-19 138.73 -19 132.46 -19 126 C-16.03 126 -13.06 126 -10 126 C-10 122.7 -10 119.4 -10 116 C-6.7 116 -3.4 116 0 116 C0 119.3 0 122.6 0 126 C6.27 126 12.54 126 19 126 C19 119.4 19 112.8 19 106 C16.03 106 13.06 106 10 106 C10 99.73 10 93.46 10 87 C6.7 87 3.4 87 0 87 C0 90.3 0 93.6 0 97 C-3.3 97 -6.6 97 -10 97 C-10 90.4 -10 83.8 -10 77 C-6.7 77 -3.4 77 0 77 C0 74.03 0 71.06 0 68 C6.27 68 12.54 68 19 68 C19 61.4 19 54.8 19 48 C16.03 48 13.06 48 10 48 C10 51.3 10 54.6 10 58 C6.7 58 3.4 58 0 58 C0 54.7 0 51.4 0 48 C-3.3 48 -6.6 48 -10 48 C-10 45.03 -10 42.06 -10 39 C-3.4 39 3.2 39 10 39 C10 32.4 10 25.8 10 19 C6.7 19 3.4 19 0 19 C0 12.73 0 6.46 0 0 Z " fill="#FEFEFE" transform="translate(165,49)"/>
<path d="M0 0 C3.3 0 6.6 0 10 0 C10 9.57 10 19.14 10 29 C16.27 29 22.54 29 29 29 C29 35.27 29 41.54 29 48 C32.3 48 35.6 48 39 48 C39 54.6 39 61.2 39 68 C32.4 68 25.8 68 19 68 C19 70.97 19 73.94 19 77 C22.3 77 25.6 77 29 77 C29 80.3 29 83.6 29 87 C32.3 87 35.6 87 39 87 C39 83.7 39 80.4 39 77 C41.97 77 44.94 77 48 77 C48 83.6 48 90.2 48 97 C41.73 97 35.46 97 29 97 C29 99.97 29 102.94 29 106 C25.7 106 22.4 106 19 106 C19 112.6 19 119.2 19 126 C22.3 126 25.6 126 29 126 C29 122.7 29 119.4 29 116 C32.3 116 35.6 116 39 116 C39 122.27 39 128.54 39 135 C41.97 135 44.94 135 48 135 C48 141.6 48 148.2 48 155 C41.73 155 35.46 155 29 155 C29 151.7 29 148.4 29 145 C25.7 145 22.4 145 19 145 C19 148.3 19 151.6 19 155 C16.03 155 13.06 155 10 155 C10 148.4 10 141.8 10 135 C6.7 135 3.4 135 0 135 C0 132.03 0 129.06 0 126 C-9.57 126 -19.14 126 -29 126 C-29 122.7 -29 119.4 -29 116 C-16.13 116 -3.26 116 10 116 C10 112.7 10 109.4 10 106 C-6.17 106 -22.34 106 -39 106 C-39 96.43 -39 86.86 -39 77 C-35.7 77 -32.4 77 -29 77 C-29 83.6 -29 90.2 -29 97 C-25.7 97 -22.4 97 -19 97 C-19 87.43 -19 77.86 -19 68 C-22.3 68 -25.6 68 -29 68 C-29 58.43 -29 48.86 -29 39 C-22.73 39 -16.46 39 -10 39 C-10 29.43 -10 19.86 -10 10 C-6.7 10 -3.4 10 0 10 C0 6.7 0 3.4 0 0 Z " fill="#000000" transform="translate(136,20)"/>
<path d="M0 0 C2.97 0 5.94 0 9 0 C9 6.6 9 13.2 9 20 C15.6 20 22.2 20 29 20 C29 26.27 29 32.54 29 39 C25.7 39 22.4 39 19 39 C19 42.3 19 45.6 19 49 C12.73 49 6.46 49 0 49 C0 51.97 0 54.94 0 58 C-3.3 58 -6.6 58 -10 58 C-10 64.6 -10 71.2 -10 78 C-6.7 78 -3.4 78 0 78 C0 74.7 0 71.4 0 68 C2.97 68 5.94 68 9 68 C9 71.3 9 74.6 9 78 C12.3 78 15.6 78 19 78 C19 80.97 19 83.94 19 87 C15.7 87 12.4 87 9 87 C9 90.3 9 93.6 9 97 C12.3 97 15.6 97 19 97 C19 100.3 19 103.6 19 107 C25.27 107 31.54 107 38 107 C38 109.97 38 112.94 38 116 C35.03 116 32.06 116 29 116 C29 122.6 29 129.2 29 136 C25.7 136 22.4 136 19 136 C19 129.4 19 122.8 19 116 C12.73 116 6.46 116 0 116 C0 119.3 0 122.6 0 126 C2.97 126 5.94 126 9 126 C9 129.3 9 132.6 9 136 C-0.57 136 -10.14 136 -20 136 C-20 132.7 -20 129.4 -20 126 C-16.7 126 -13.4 126 -10 126 C-10 122.7 -10 119.4 -10 116 C-16.27 116 -22.54 116 -29 116 C-29 113.03 -29 110.06 -29 107 C-26.03 107 -23.06 107 -20 107 C-20 103.7 -20 100.4 -20 97 C-22.97 97 -25.94 97 -29 97 C-29 90.73 -29 84.46 -29 78 C-26.03 78 -23.06 78 -20 78 C-20 74.7 -20 71.4 -20 68 C-22.97 68 -25.94 68 -29 68 C-29 61.73 -29 55.46 -29 49 C-26.03 49 -23.06 49 -20 49 C-20 42.4 -20 35.8 -20 29 C-26.27 29 -32.54 29 -39 29 C-39 26.03 -39 23.06 -39 20 C-32.73 20 -26.46 20 -20 20 C-20 16.7 -20 13.4 -20 10 C-13.4 10 -6.8 10 0 10 C0 6.7 0 3.4 0 0 Z " fill="#000000" transform="translate(117,155)"/>
<path d="M0 0 C9.57 0 19.14 0 29 0 C29 3.3 29 6.6 29 10 C35.6 10 42.2 10 49 10 C49 6.7 49 3.4 49 0 C51.97 0 54.94 0 58 0 C58 9.57 58 19.14 58 29 C55.03 29 52.06 29 49 29 C49 35.6 49 42.2 49 49 C51.97 49 54.94 49 58 49 C58 58.57 58 68.14 58 78 C61.3 78 64.6 78 68 78 C68 84.27 68 90.54 68 97 C71.3 97 74.6 97 78 97 C78 100.3 78 103.6 78 107 C74.7 107 71.4 107 68 107 C68 109.97 68 112.94 68 116 C71.3 116 74.6 116 78 116 C78 122.6 78 129.2 78 136 C80.97 136 83.94 136 87 136 C87 138.97 87 141.94 87 145 C80.73 145 74.46 145 68 145 C68 142.03 68 139.06 68 136 C61.73 136 55.46 136 49 136 C49 132.7 49 129.4 49 126 C45.7 126 42.4 126 39 126 C39 122.7 39 119.4 39 116 C42.3 116 45.6 116 49 116 C49 113.03 49 110.06 49 107 C45.7 107 42.4 107 39 107 C39 100.4 39 93.8 39 87 C42.3 87 45.6 87 49 87 C49 84.03 49 81.06 49 78 C45.7 78 42.4 78 39 78 C39 74.7 39 71.4 39 68 C35.7 68 32.4 68 29 68 C29 61.73 29 55.46 29 49 C26.03 49 23.06 49 20 49 C20 45.7 20 42.4 20 39 C16.7 39 13.4 39 10 39 C10 35.7 10 32.4 10 29 C6.7 29 3.4 29 0 29 C0 19.43 0 9.86 0 0 Z " fill="#000000" transform="translate(155,10)"/>
<path d="M0 0 C22.44 0 44.88 0 68 0 C68 22.44 68 44.88 68 68 C45.56 68 23.12 68 0 68 C0 45.56 0 23.12 0 0 Z " fill="#000000" transform="translate(10,223)"/>
<path d="M0 0 C22.44 0 44.88 0 68 0 C68 22.44 68 44.88 68 68 C45.56 68 23.12 68 0 68 C0 45.56 0 23.12 0 0 Z " fill="#000000" transform="translate(223,10)"/>
<path d="M0 0 C22.44 0 44.88 0 68 0 C68 22.44 68 44.88 68 68 C45.56 68 23.12 68 0 68 C0 45.56 0 23.12 0 0 Z " fill="#000000" transform="translate(10,10)"/>
<path d="M0 0 C9.57 0 19.14 0 29 0 C29 6.27 29 12.54 29 19 C31.97 19 34.94 19 38 19 C38 15.7 38 12.4 38 9 C47.57 9 57.14 9 67 9 C67 15.6 67 22.2 67 29 C64.03 29 61.06 29 58 29 C58 31.97 58 34.94 58 38 C64.27 38 70.54 38 77 38 C77 41.3 77 44.6 77 48 C73.7 48 70.4 48 67 48 C67 54.27 67 60.54 67 67 C73.6 67 80.2 67 87 67 C87 73.6 87 80.2 87 87 C77.43 87 67.86 87 58 87 C58 83.7 58 80.4 58 77 C54.7 77 51.4 77 48 77 C48 73.7 48 70.4 48 67 C51.3 67 54.6 67 58 67 C58 64.03 58 61.06 58 58 C45.13 58 32.26 58 19 58 C19 54.7 19 51.4 19 48 C15.7 48 12.4 48 9 48 C9 44.7 9 41.4 9 38 C12.3 38 15.6 38 19 38 C19 35.03 19 32.06 19 29 C15.7 29 12.4 29 9 29 C9 25.7 9 22.4 9 19 C6.03 19 3.06 19 0 19 C0 22.3 0 25.6 0 29 C-3.3 29 -6.6 29 -10 29 C-10 22.4 -10 15.8 -10 9 C-6.7 9 -3.4 9 0 9 C0 6.03 0 3.06 0 0 Z " fill="#FEFEFE" transform="translate(117,204)"/>
<path d="M0 0 C15.84 0 31.68 0 48 0 C48 15.84 48 31.68 48 48 C32.16 48 16.32 48 0 48 C0 32.16 0 16.32 0 0 Z " fill="#FEFEFE" transform="translate(20,233)"/>
<path d="M0 0 C15.84 0 31.68 0 48 0 C48 15.84 48 31.68 48 48 C32.16 48 16.32 48 0 48 C0 32.16 0 16.32 0 0 Z " fill="#FEFEFE" transform="translate(233,20)"/>
<path d="M0 0 C15.84 0 31.68 0 48 0 C48 15.84 48 31.68 48 48 C32.16 48 16.32 48 0 48 C0 32.16 0 16.32 0 0 Z " fill="#FEFEFE" transform="translate(20,20)"/>
<path d="M0 0 C2.97 0 5.94 0 9 0 C9 6.6 9 13.2 9 20 C15.6 20 22.2 20 29 20 C29 26.27 29 32.54 29 39 C25.7 39 22.4 39 19 39 C19 42.3 19 45.6 19 49 C12.73 49 6.46 49 0 49 C0 51.97 0 54.94 0 58 C-6.6 58 -13.2 58 -20 58 C-20 48.43 -20 38.86 -20 29 C-26.27 29 -32.54 29 -39 29 C-39 26.03 -39 23.06 -39 20 C-32.73 20 -26.46 20 -20 20 C-20 16.7 -20 13.4 -20 10 C-13.4 10 -6.8 10 0 10 C0 6.7 0 3.4 0 0 Z " fill="#000000" transform="translate(117,155)"/>
<path d="M0 0 C3.3 0 6.6 0 10 0 C10 6.27 10 12.54 10 19 C19.57 19 29.14 19 39 19 C39 22.3 39 25.6 39 29 C32.73 29 26.46 29 20 29 C20 35.27 20 41.54 20 48 C22.97 48 25.94 48 29 48 C29 51.3 29 54.6 29 58 C32.3 58 35.6 58 39 58 C39 60.97 39 63.94 39 67 C29.43 67 19.86 67 10 67 C10 64.03 10 61.06 10 58 C6.7 58 3.4 58 0 58 C0 51.4 0 44.8 0 38 C-6.27 38 -12.54 38 -19 38 C-19 35.03 -19 32.06 -19 29 C-12.73 29 -6.46 29 0 29 C0 19.43 0 9.86 0 0 Z " fill="#000000" transform="translate(39,146)"/>
<path d="M0 0 C6.6 0 13.2 0 20 0 C20 2.97 20 5.94 20 9 C26.27 9 32.54 9 39 9 C39 12.3 39 15.6 39 19 C35.7 19 32.4 19 29 19 C29 25.27 29 31.54 29 38 C35.6 38 42.2 38 49 38 C49 44.6 49 51.2 49 58 C39.43 58 29.86 58 20 58 C20 54.7 20 51.4 20 48 C16.7 48 13.4 48 10 48 C10 44.7 10 41.4 10 38 C13.3 38 16.6 38 20 38 C20 35.03 20 32.06 20 29 C13.4 29 6.8 29 0 29 C0 25.7 0 22.4 0 19 C3.3 19 6.6 19 10 19 C10 15.7 10 12.4 10 9 C6.7 9 3.4 9 0 9 C0 6.03 0 3.06 0 0 Z " fill="#000000" transform="translate(155,233)"/>
<path d="M0 0 C3.3 0 6.6 0 10 0 C10 3.3 10 6.6 10 10 C12.97 10 15.94 10 19 10 C19 16.27 19 22.54 19 29 C22.3 29 25.6 29 29 29 C29 32.3 29 35.6 29 39 C32.3 39 35.6 39 39 39 C39 41.97 39 44.94 39 48 C35.7 48 32.4 48 29 48 C29 54.6 29 61.2 29 68 C32.3 68 35.6 68 39 68 C39 70.97 39 73.94 39 77 C32.4 77 25.8 77 19 77 C19 67.43 19 57.86 19 48 C16.03 48 13.06 48 10 48 C10 51.3 10 54.6 10 58 C6.7 58 3.4 58 0 58 C0 54.7 0 51.4 0 48 C-3.3 48 -6.6 48 -10 48 C-10 45.03 -10 42.06 -10 39 C-3.4 39 3.2 39 10 39 C10 32.4 10 25.8 10 19 C6.7 19 3.4 19 0 19 C0 12.73 0 6.46 0 0 Z " fill="#FEFEFE" transform="translate(165,49)"/>
<path d="M0 0 C2.97 0 5.94 0 9 0 C9 2.97 9 5.94 9 9 C12.3 9 15.6 9 19 9 C19 6.03 19 3.06 19 0 C28.57 0 38.14 0 48 0 C48 2.97 48 5.94 48 9 C41.73 9 35.46 9 29 9 C29 12.3 29 15.6 29 19 C25.7 19 22.4 19 19 19 C19 22.3 19 25.6 19 29 C22.3 29 25.6 29 29 29 C29 31.97 29 34.94 29 38 C19.43 38 9.86 38 0 38 C0 35.03 0 32.06 0 29 C-3.3 29 -6.6 29 -10 29 C-10 25.7 -10 22.4 -10 19 C-13.3 19 -16.6 19 -20 19 C-20 15.7 -20 12.4 -20 9 C-13.4 9 -6.8 9 0 9 C0 6.03 0 3.06 0 0 Z " fill="#000000" transform="translate(30,88)"/>
<path d="M0 0 C3.3 0 6.6 0 10 0 C10 6.27 10 12.54 10 19 C12.97 19 15.94 19 19 19 C19 25.6 19 32.2 19 39 C12.73 39 6.46 39 0 39 C0 35.7 0 32.4 0 29 C-3.3 29 -6.6 29 -10 29 C-10 32.3 -10 35.6 -10 39 C-12.97 39 -15.94 39 -19 39 C-19 32.4 -19 25.8 -19 19 C-16.03 19 -13.06 19 -10 19 C-10 16.03 -10 13.06 -10 10 C-6.7 10 -3.4 10 0 10 C0 6.7 0 3.4 0 0 Z " fill="#000000" transform="translate(165,136)"/>
<path d="M0 0 C2.97 0 5.94 0 9 0 C9 2.97 9 5.94 9 9 C12.3 9 15.6 9 19 9 C19 12.3 19 15.6 19 19 C22.3 19 25.6 19 29 19 C29 22.3 29 25.6 29 29 C25.7 29 22.4 29 19 29 C19 31.97 19 34.94 19 38 C15.7 38 12.4 38 9 38 C9 41.3 9 44.6 9 48 C6.03 48 3.06 48 0 48 C0 41.73 0 35.46 0 29 C-3.3 29 -6.6 29 -10 29 C-10 25.7 -10 22.4 -10 19 C-6.7 19 -3.4 19 0 19 C0 12.73 0 6.46 0 0 Z " fill="#FEFEFE" transform="translate(146,175)"/>
<path d="M0 0 C9.57 0 19.14 0 29 0 C29 9.57 29 19.14 29 29 C19.43 29 9.86 29 0 29 C0 19.43 0 9.86 0 0 Z " fill="#000000" transform="translate(30,242)"/>
<path d="M0 0 C9.57 0 19.14 0 29 0 C29 9.57 29 19.14 29 29 C19.43 29 9.86 29 0 29 C0 19.43 0 9.86 0 0 Z " fill="#FEFEFE" transform="translate(213,213)"/>
<path d="M0 0 C6.27 0 12.54 0 19 0 C19 2.97 19 5.94 19 9 C25.27 9 31.54 9 38 9 C38 15.6 38 22.2 38 29 C28.43 29 18.86 29 9 29 C9 25.7 9 22.4 9 19 C6.03 19 3.06 19 0 19 C0 12.73 0 6.46 0 0 Z " fill="#FDFDFD" transform="translate(59,175)"/>
<path d="M0 0 C9.57 0 19.14 0 29 0 C29 9.57 29 19.14 29 29 C19.43 29 9.86 29 0 29 C0 19.43 0 9.86 0 0 Z " fill="#000000" transform="translate(242,30)"/>
<path d="M0 0 C9.57 0 19.14 0 29 0 C29 9.57 29 19.14 29 29 C19.43 29 9.86 29 0 29 C0 19.43 0 9.86 0 0 Z " fill="#000000" transform="translate(30,30)"/>
<path d="M0 0 C3.3 0 6.6 0 10 0 C10 16.17 10 32.34 10 49 C6.7 49 3.4 49 0 49 C0 45.7 0 42.4 0 39 C-3.3 39 -6.6 39 -10 39 C-10 29.43 -10 19.86 -10 10 C-6.7 10 -3.4 10 0 10 C0 6.7 0 3.4 0 0 Z " fill="#000000" transform="translate(281,126)"/>
<path d="M0 0 C6.27 0 12.54 0 19 0 C19 2.97 19 5.94 19 9 C22.3 9 25.6 9 29 9 C29 12.3 29 15.6 29 19 C25.7 19 22.4 19 19 19 C19 22.3 19 25.6 19 29 C12.73 29 6.46 29 0 29 C0 25.7 0 22.4 0 19 C-3.3 19 -6.6 19 -10 19 C-10 15.7 -10 12.4 -10 9 C-6.7 9 -3.4 9 0 9 C0 6.03 0 3.06 0 0 Z " fill="#FEFEFE" transform="translate(136,233)"/>
<path d="M0 0 C2.97 0 5.94 0 9 0 C9 9.57 9 19.14 9 29 C2.73 29 -3.54 29 -10 29 C-10 26.03 -10 23.06 -10 20 C-19.57 20 -29.14 20 -39 20 C-39 16.7 -39 13.4 -39 10 C-26.13 10 -13.26 10 0 10 C0 6.7 0 3.4 0 0 Z " fill="#000000" transform="translate(146,126)"/>
<path d="M0 0 C3.3 0 6.6 0 10 0 C10 6.27 10 12.54 10 19 C19.57 19 29.14 19 39 19 C39 22.3 39 25.6 39 29 C26.13 29 13.26 29 0 29 C0 25.7 0 22.4 0 19 C-3.3 19 -6.6 19 -10 19 C-10 15.7 -10 12.4 -10 9 C-6.7 9 -3.4 9 0 9 C0 6.03 0 3.06 0 0 Z " fill="#000000" transform="translate(252,88)"/>
<path d="M0 0 C9.57 0 19.14 0 29 0 C29 3.3 29 6.6 29 10 C22.73 10 16.46 10 10 10 C10 13.3 10 16.6 10 20 C13.3 20 16.6 20 20 20 C20 26.27 20 32.54 20 39 C16.7 39 13.4 39 10 39 C10 35.7 10 32.4 10 29 C6.7 29 3.4 29 0 29 C0 19.43 0 9.86 0 0 Z " fill="#000000" transform="translate(155,10)"/>
<path d="M0 0 C6.27 0 12.54 0 19 0 C19 9.57 19 19.14 19 29 C15.7 29 12.4 29 9 29 C9 25.7 9 22.4 9 19 C6.03 19 3.06 19 0 19 C0 22.3 0 25.6 0 29 C-3.3 29 -6.6 29 -10 29 C-10 22.4 -10 15.8 -10 9 C-6.7 9 -3.4 9 0 9 C0 6.03 0 3.06 0 0 Z " fill="#FEFEFE" transform="translate(117,204)"/>
<path d="M0 0 C3.3 0 6.6 0 10 0 C10 3.3 10 6.6 10 10 C13.3 10 16.6 10 20 10 C20 6.7 20 3.4 20 0 C22.97 0 25.94 0 29 0 C29 6.6 29 13.2 29 20 C22.73 20 16.46 20 10 20 C10 22.97 10 25.94 10 29 C6.7 29 3.4 29 0 29 C0 19.43 0 9.86 0 0 Z " fill="#000000" transform="translate(155,97)"/>
<path d="M0 0 C6.6 0 13.2 0 20 0 C20 9.57 20 19.14 20 29 C16.7 29 13.4 29 10 29 C10 25.7 10 22.4 10 19 C3.73 19 -2.54 19 -9 19 C-9 16.03 -9 13.06 -9 10 C-6.03 10 -3.06 10 0 10 C0 6.7 0 3.4 0 0 Z " fill="#FEFEFE" transform="translate(184,223)"/>
<path d="M0 0 C2.97 0 5.94 0 9 0 C9 9.57 9 19.14 9 29 C2.73 29 -3.54 29 -10 29 C-10 25.7 -10 22.4 -10 19 C-13.3 19 -16.6 19 -20 19 C-20 15.7 -20 12.4 -20 9 C-13.4 9 -6.8 9 0 9 C0 6.03 0 3.06 0 0 Z " fill="#FEFEFE" transform="translate(117,30)"/>
<path d="M0 0 C2.97 0 5.94 0 9 0 C9 9.57 9 19.14 9 29 C-3.54 29 -16.08 29 -29 29 C-29 26.03 -29 23.06 -29 20 C-19.43 20 -9.86 20 0 20 C0 13.4 0 6.8 0 0 Z " fill="#000000" transform="translate(88,126)"/>
<path d="M0 0 C6.6 0 13.2 0 20 0 C20 6.6 20 13.2 20 20 C10.43 20 0.86 20 -9 20 C-9 16.7 -9 13.4 -9 10 C-6.03 10 -3.06 10 0 10 C0 6.7 0 3.4 0 0 Z " fill="#000000" transform="translate(184,271)"/>
<path d="M0 0 C3.3 0 6.6 0 10 0 C10 9.57 10 19.14 10 29 C0.43 29 -9.14 29 -19 29 C-19 25.7 -19 22.4 -19 19 C-12.73 19 -6.46 19 0 19 C0 12.73 0 6.46 0 0 Z " fill="#000000" transform="translate(281,204)"/>
<path d="M0 0 C9.57 0 19.14 0 29 0 C29 3.3 29 6.6 29 10 C22.4 10 15.8 10 9 10 C9 13.3 9 16.6 9 20 C6.03 20 3.06 20 0 20 C0 13.4 0 6.8 0 0 Z " fill="#000000" transform="translate(262,242)"/>
<path d="M0 0 C3.3 0 6.6 0 10 0 C10 6.27 10 12.54 10 19 C12.97 19 15.94 19 19 19 C19 22.3 19 25.6 19 29 C12.73 29 6.46 29 0 29 C0 19.43 0 9.86 0 0 Z " fill="#000000" transform="translate(136,204)"/>
<path d="M0 0 C3.3 0 6.6 0 10 0 C10 12.54 10 25.08 10 38 C6.7 38 3.4 38 0 38 C0 25.46 0 12.92 0 0 Z " fill="#000000" transform="translate(10,117)"/>
<path d="M0 0 C6.27 0 12.54 0 19 0 C19 3.3 19 6.6 19 10 C16.03 10 13.06 10 10 10 C10 12.97 10 15.94 10 19 C3.4 19 -3.2 19 -10 19 C-10 16.03 -10 13.06 -10 10 C-6.7 10 -3.4 10 0 10 C0 6.7 0 3.4 0 0 Z " fill="#000000" transform="translate(107,20)"/>
<path d="M0 0 C6.27 0 12.54 0 19 0 C19 9.57 19 19.14 19 29 C16.03 29 13.06 29 10 29 C10 22.73 10 16.46 10 10 C6.7 10 3.4 10 0 10 C0 6.7 0 3.4 0 0 Z " fill="#FEFEFE" transform="translate(165,20)"/>
<path d="M0 0 C2.97 0 5.94 0 9 0 C9 3.3 9 6.6 9 10 C12.3 10 15.6 10 19 10 C19 12.97 19 15.94 19 19 C9.43 19 -0.14 19 -10 19 C-10 16.03 -10 13.06 -10 10 C-6.7 10 -3.4 10 0 10 C0 6.7 0 3.4 0 0 Z " fill="#000000" transform="translate(59,194)"/>
<path d="M0 0 C3.3 0 6.6 0 10 0 C10 3.3 10 6.6 10 10 C13.3 10 16.6 10 20 10 C20 13.3 20 16.6 20 20 C13.4 20 6.8 20 0 20 C0 13.4 0 6.8 0 0 Z " fill="#000000" transform="translate(271,271)"/>
<path d="M0 0 C6.6 0 13.2 0 20 0 C20 3.3 20 6.6 20 10 C16.7 10 13.4 10 10 10 C10 13.3 10 16.6 10 20 C6.7 20 3.4 20 0 20 C0 13.4 0 6.8 0 0 Z " fill="#000000" transform="translate(242,155)"/>
<path d="M0 0 C9.57 0 19.14 0 29 0 C29 3.3 29 6.6 29 10 C19.43 10 9.86 10 0 10 C0 6.7 0 3.4 0 0 Z " fill="#000000" transform="translate(262,184)"/>
<path d="M0 0 C3.3 0 6.6 0 10 0 C10 3.3 10 6.6 10 10 C13.3 10 16.6 10 20 10 C20 12.97 20 15.94 20 19 C13.4 19 6.8 19 0 19 C0 12.73 0 6.46 0 0 Z " fill="#FEFEFE" transform="translate(184,252)"/>
<path d="M0 0 C6.27 0 12.54 0 19 0 C19 6.6 19 13.2 19 20 C16.03 20 13.06 20 10 20 C10 16.7 10 13.4 10 10 C6.7 10 3.4 10 0 10 C0 6.7 0 3.4 0 0 Z " fill="#FEFEFE" transform="translate(78,184)"/>
<path d="M0 0 C6.27 0 12.54 0 19 0 C19 6.6 19 13.2 19 20 C16.03 20 13.06 20 10 20 C10 16.7 10 13.4 10 10 C6.7 10 3.4 10 0 10 C0 6.7 0 3.4 0 0 Z " fill="#FEFEFE" transform="translate(20,184)"/>
<path d="M0 0 C6.27 0 12.54 0 19 0 C19 2.97 19 5.94 19 9 C16.03 9 13.06 9 10 9 C10 12.3 10 15.6 10 19 C6.7 19 3.4 19 0 19 C0 12.73 0 6.46 0 0 Z " fill="#FEFEFE" transform="translate(136,59)"/>
<path d="M0 0 C6.27 0 12.54 0 19 0 C19 2.97 19 5.94 19 9 C15.7 9 12.4 9 9 9 C9 12.3 9 15.6 9 19 C6.03 19 3.06 19 0 19 C0 12.73 0 6.46 0 0 Z " fill="#FEFEFE" transform="translate(59,175)"/>
<path d="M0 0 C2.97 0 5.94 0 9 0 C9 9.57 9 19.14 9 29 C6.03 29 3.06 29 0 29 C0 19.43 0 9.86 0 0 Z " fill="#FEFEFE" transform="translate(146,97)"/>
<path d="M0 0 C6.6 0 13.2 0 20 0 C20 3.3 20 6.6 20 10 C13.4 10 6.8 10 0 10 C0 6.7 0 3.4 0 0 Z " fill="#000000" transform="translate(213,184)"/>
<path d="M0 0 C3.3 0 6.6 0 10 0 C10 6.6 10 13.2 10 20 C6.7 20 3.4 20 0 20 C0 13.4 0 6.8 0 0 Z " fill="#000000" transform="translate(252,126)"/>
<path d="M0 0 C6.27 0 12.54 0 19 0 C19 3.3 19 6.6 19 10 C12.73 10 6.46 10 0 10 C0 6.7 0 3.4 0 0 Z " fill="#000000" transform="translate(117,194)"/>
<path d="M0 0 C6.27 0 12.54 0 19 0 C19 3.3 19 6.6 19 10 C12.73 10 6.46 10 0 10 C0 6.7 0 3.4 0 0 Z " fill="#FEFEFE" transform="translate(117,184)"/>
<path d="M0 0 C3.3 0 6.6 0 10 0 C10 6.27 10 12.54 10 19 C6.7 19 3.4 19 0 19 C0 12.73 0 6.46 0 0 Z " fill="#FEFEFE" transform="translate(126,78)"/>
<path d="M0 0 C6.27 0 12.54 0 19 0 C19 3.3 19 6.6 19 10 C12.73 10 6.46 10 0 10 C0 6.7 0 3.4 0 0 Z " fill="#000000" transform="translate(88,10)"/>
<path d="M0 0 C6.27 0 12.54 0 19 0 C19 2.97 19 5.94 19 9 C12.73 9 6.46 9 0 9 C0 6.03 0 3.06 0 0 Z " fill="#000000" transform="translate(20,175)"/>
<path d="M0 0 C3.3 0 6.6 0 10 0 C10 3.3 10 6.6 10 10 C6.7 10 3.4 10 0 10 C0 6.7 0 3.4 0 0 Z " fill="#010101" transform="translate(155,281)"/>
<path d="M0 0 C3.3 0 6.6 0 10 0 C10 3.3 10 6.6 10 10 C6.7 10 3.4 10 0 10 C0 6.7 0 3.4 0 0 Z " fill="#000000" transform="translate(223,271)"/>
<path d="M0 0 C3.3 0 6.6 0 10 0 C10 3.3 10 6.6 10 10 C6.7 10 3.4 10 0 10 C0 6.7 0 3.4 0 0 Z " fill="#000000" transform="translate(165,271)"/>
<path d="M0 0 C3.3 0 6.6 0 10 0 C10 3.3 10 6.6 10 10 C6.7 10 3.4 10 0 10 C0 6.7 0 3.4 0 0 Z " fill="#000000" transform="translate(194,252)"/>
<path d="M0 0 C3.3 0 6.6 0 10 0 C10 3.3 10 6.6 10 10 C6.7 10 3.4 10 0 10 C0 6.7 0 3.4 0 0 Z " fill="#FDFDFD" transform="translate(107,252)"/>
<path d="M0 0 C3.3 0 6.6 0 10 0 C10 3.3 10 6.6 10 10 C6.7 10 3.4 10 0 10 C0 6.7 0 3.4 0 0 Z " fill="#FDFDFD" transform="translate(97,242)"/>
<path d="M0 0 C3.3 0 6.6 0 10 0 C10 3.3 10 6.6 10 10 C6.7 10 3.4 10 0 10 C0 6.7 0 3.4 0 0 Z " fill="#000000" transform="translate(223,223)"/>
<path d="M0 0 C3.3 0 6.6 0 10 0 C10 3.3 10 6.6 10 10 C6.7 10 3.4 10 0 10 C0 6.7 0 3.4 0 0 Z " fill="#010101" transform="translate(155,213)"/>
<path d="M0 0 C3.3 0 6.6 0 10 0 C10 3.3 10 6.6 10 10 C6.7 10 3.4 10 0 10 C0 6.7 0 3.4 0 0 Z " fill="#FDFDFD" transform="translate(107,194)"/>
<path d="M0 0 C3.3 0 6.6 0 10 0 C10 3.3 10 6.6 10 10 C6.7 10 3.4 10 0 10 C0 6.7 0 3.4 0 0 Z " fill="#000000" transform="translate(78,194)"/>
<path d="M0 0 C3.3 0 6.6 0 10 0 C10 3.3 10 6.6 10 10 C6.7 10 3.4 10 0 10 C0 6.7 0 3.4 0 0 Z " fill="#FDFDFD" transform="translate(49,194)"/>
<path d="M0 0 C3.3 0 6.6 0 10 0 C10 3.3 10 6.6 10 10 C6.7 10 3.4 10 0 10 C0 6.7 0 3.4 0 0 Z " fill="#000000" transform="translate(20,194)"/>
<path d="M0 0 C3.3 0 6.6 0 10 0 C10 3.3 10 6.6 10 10 C6.7 10 3.4 10 0 10 C0 6.7 0 3.4 0 0 Z " fill="#000000" transform="translate(165,184)"/>
<path d="M0 0 C3.3 0 6.6 0 10 0 C10 3.3 10 6.6 10 10 C6.7 10 3.4 10 0 10 C0 6.7 0 3.4 0 0 Z " fill="#000000" transform="translate(68,184)"/>
<path d="M0 0 C3.3 0 6.6 0 10 0 C10 3.3 10 6.6 10 10 C6.7 10 3.4 10 0 10 C0 6.7 0 3.4 0 0 Z " fill="#000000" transform="translate(10,184)"/>
<path d="M0 0 C3.3 0 6.6 0 10 0 C10 3.3 10 6.6 10 10 C6.7 10 3.4 10 0 10 C0 6.7 0 3.4 0 0 Z " fill="#000000" transform="translate(223,165)"/>
<path d="M0 0 C3.3 0 6.6 0 10 0 C10 3.3 10 6.6 10 10 C6.7 10 3.4 10 0 10 C0 6.7 0 3.4 0 0 Z " fill="#FDFDFD" transform="translate(155,165)"/>
<path d="M0 0 C3.3 0 6.6 0 10 0 C10 3.3 10 6.6 10 10 C6.7 10 3.4 10 0 10 C0 6.7 0 3.4 0 0 Z " fill="#000000" transform="translate(20,155)"/>
<path d="M0 0 C3.3 0 6.6 0 10 0 C10 3.3 10 6.6 10 10 C6.7 10 3.4 10 0 10 C0 6.7 0 3.4 0 0 Z " fill="#000000" transform="translate(68,126)"/>
<path d="M0 0 C3.3 0 6.6 0 10 0 C10 3.3 10 6.6 10 10 C6.7 10 3.4 10 0 10 C0 6.7 0 3.4 0 0 Z " fill="#FEFEFE" transform="translate(126,107)"/>
<path d="M0 0 C3.3 0 6.6 0 10 0 C10 3.3 10 6.6 10 10 C6.7 10 3.4 10 0 10 C0 6.7 0 3.4 0 0 Z " fill="#000000" transform="translate(68,107)"/>
<path d="M0 0 C3.3 0 6.6 0 10 0 C10 3.3 10 6.6 10 10 C6.7 10 3.4 10 0 10 C0 6.7 0 3.4 0 0 Z " fill="#FEFEFE" transform="translate(194,68)"/>
<path d="M0 0 C3.3 0 6.6 0 10 0 C10 3.3 10 6.6 10 10 C6.7 10 3.4 10 0 10 C0 6.7 0 3.4 0 0 Z " fill="#FDFDFD" transform="translate(155,68)"/>
<path d="M0 0 C3.3 0 6.6 0 10 0 C10 3.3 10 6.6 10 10 C6.7 10 3.4 10 0 10 C0 6.7 0 3.4 0 0 Z " fill="#010101" transform="translate(97,49)"/>
<path d="M0 0 C2.97 0 5.94 0 9 0 C9 3.3 9 6.6 9 10 C6.03 10 3.06 10 0 10 C0 6.7 0 3.4 0 0 Z " fill="#FFFFFF" transform="translate(175,271)"/>
<path d="M0 0 C3.3 0 6.6 0 10 0 C10 2.97 10 5.94 10 9 C6.7 9 3.4 9 0 9 C0 6.03 0 3.06 0 0 Z " fill="#010101" transform="translate(281,262)"/>
<path d="M0 0 C2.97 0 5.94 0 9 0 C9 3.3 9 6.6 9 10 C6.03 10 3.06 10 0 10 C0 6.7 0 3.4 0 0 Z " fill="#FEFEFE" transform="translate(204,252)"/>
<path d="M0 0 C3.3 0 6.6 0 10 0 C10 2.97 10 5.94 10 9 C6.7 9 3.4 9 0 9 C0 6.03 0 3.06 0 0 Z " fill="#000000" transform="translate(126,233)"/>
<path d="M0 0 C2.97 0 5.94 0 9 0 C9 3.3 9 6.6 9 10 C6.03 10 3.06 10 0 10 C0 6.7 0 3.4 0 0 Z " fill="#000000" transform="translate(175,223)"/>
<path d="M0 0 C2.97 0 5.94 0 9 0 C9 3.3 9 6.6 9 10 C6.03 10 3.06 10 0 10 C0 6.7 0 3.4 0 0 Z " fill="#000000" transform="translate(117,223)"/>
<path d="M0 0 C3.3 0 6.6 0 10 0 C10 2.97 10 5.94 10 9 C6.7 9 3.4 9 0 9 C0 6.03 0 3.06 0 0 Z " fill="#FEFEFE" transform="translate(194,204)"/>
<path d="M0 0 C3.3 0 6.6 0 10 0 C10 2.97 10 5.94 10 9 C6.7 9 3.4 9 0 9 C0 6.03 0 3.06 0 0 Z " fill="#010101" transform="translate(107,204)"/>
<path d="M0 0 C3.3 0 6.6 0 10 0 C10 2.97 10 5.94 10 9 C6.7 9 3.4 9 0 9 C0 6.03 0 3.06 0 0 Z " fill="#FDFDFD" transform="translate(97,204)"/>
<path d="M0 0 C3.3 0 6.6 0 10 0 C10 2.97 10 5.94 10 9 C6.7 9 3.4 9 0 9 C0 6.03 0 3.06 0 0 Z " fill="#000000" transform="translate(10,204)"/>
<path d="M0 0 C3.3 0 6.6 0 10 0 C10 2.97 10 5.94 10 9 C6.7 9 3.4 9 0 9 C0 6.03 0 3.06 0 0 Z " fill="#000000" transform="translate(194,175)"/>
<path d="M0 0 C3.3 0 6.6 0 10 0 C10 2.97 10 5.94 10 9 C6.7 9 3.4 9 0 9 C0 6.03 0 3.06 0 0 Z " fill="#000000" transform="translate(155,175)"/>
<path d="M0 0 C3.3 0 6.6 0 10 0 C10 2.97 10 5.94 10 9 C6.7 9 3.4 9 0 9 C0 6.03 0 3.06 0 0 Z " fill="#FEFEFE" transform="translate(107,175)"/>
<path d="M0 0 C3.3 0 6.6 0 10 0 C10 2.97 10 5.94 10 9 C6.7 9 3.4 9 0 9 C0 6.03 0 3.06 0 0 Z " fill="#FEFEFE" transform="translate(39,175)"/>
<path d="M0 0 C2.97 0 5.94 0 9 0 C9 3.3 9 6.6 9 10 C6.03 10 3.06 10 0 10 C0 6.7 0 3.4 0 0 Z " fill="#000000" transform="translate(204,155)"/>
<path d="M0 0 C3.3 0 6.6 0 10 0 C10 2.97 10 5.94 10 9 C6.7 9 3.4 9 0 9 C0 6.03 0 3.06 0 0 Z " fill="#000000" transform="translate(184,146)"/>
<path d="M0 0 C2.97 0 5.94 0 9 0 C9 3.3 9 6.6 9 10 C6.03 10 3.06 10 0 10 C0 6.7 0 3.4 0 0 Z " fill="#000000" transform="translate(30,136)"/>
<path d="M0 0 C3.3 0 6.6 0 10 0 C10 2.97 10 5.94 10 9 C6.7 9 3.4 9 0 9 C0 6.03 0 3.06 0 0 Z " fill="#000000" transform="translate(242,117)"/>
<path d="M0 0 C3.3 0 6.6 0 10 0 C10 2.97 10 5.94 10 9 C6.7 9 3.4 9 0 9 C0 6.03 0 3.06 0 0 Z " fill="#FEFEFE" transform="translate(194,117)"/>
<path d="M0 0 C3.3 0 6.6 0 10 0 C10 2.97 10 5.94 10 9 C6.7 9 3.4 9 0 9 C0 6.03 0 3.06 0 0 Z " fill="#000000" transform="translate(184,117)"/>
<path d="M0 0 C2.97 0 5.94 0 9 0 C9 3.3 9 6.6 9 10 C6.03 10 3.06 10 0 10 C0 6.7 0 3.4 0 0 Z " fill="#FDFDFD" transform="translate(30,107)"/>
<path d="M0 0 C3.3 0 6.6 0 10 0 C10 2.97 10 5.94 10 9 C6.7 9 3.4 9 0 9 C0 6.03 0 3.06 0 0 Z " fill="#000000" transform="translate(281,88)"/>
<path d="M0 0 C2.97 0 5.94 0 9 0 C9 3.3 9 6.6 9 10 C6.03 10 3.06 10 0 10 C0 6.7 0 3.4 0 0 Z " fill="#FEFEFE" transform="translate(117,68)"/>
<path d="M0 0 C2.97 0 5.94 0 9 0 C9 3.3 9 6.6 9 10 C6.03 10 3.06 10 0 10 C0 6.7 0 3.4 0 0 Z " fill="#000000" transform="translate(88,68)"/>
<path d="M0 0 C2.97 0 5.94 0 9 0 C9 3.3 9 6.6 9 10 C6.03 10 3.06 10 0 10 C0 6.7 0 3.4 0 0 Z " fill="#000000" transform="translate(88,39)"/>
<path d="M0 0 C3.3 0 6.6 0 10 0 C10 2.97 10 5.94 10 9 C6.7 9 3.4 9 0 9 C0 6.03 0 3.06 0 0 Z " fill="#FDFDFD" transform="translate(194,30)"/>
<path d="M0 0 C2.97 0 5.94 0 9 0 C9 2.97 9 5.94 9 9 C6.03 9 3.06 9 0 9 C0 6.03 0 3.06 0 0 Z " fill="#010101" transform="translate(204,262)"/>
<path d="M0 0 C2.97 0 5.94 0 9 0 C9 2.97 9 5.94 9 9 C6.03 9 3.06 9 0 9 C0 6.03 0 3.06 0 0 Z " fill="#FDFDFD" transform="translate(117,233)"/>
<path d="M0 0 C2.97 0 5.94 0 9 0 C9 2.97 9 5.94 9 9 C6.03 9 3.06 9 0 9 C0 6.03 0 3.06 0 0 Z " fill="#010101" transform="translate(30,204)"/>
<path d="M0 0 C2.97 0 5.94 0 9 0 C9 2.97 9 5.94 9 9 C6.03 9 3.06 9 0 9 C0 6.03 0 3.06 0 0 Z " fill="#000000" transform="translate(233,175)"/>
<path d="M0 0 C2.97 0 5.94 0 9 0 C9 2.97 9 5.94 9 9 C6.03 9 3.06 9 0 9 C0 6.03 0 3.06 0 0 Z " fill="#FEFEFE" transform="translate(146,146)"/>
<path d="M0 0 C2.97 0 5.94 0 9 0 C9 2.97 9 5.94 9 9 C6.03 9 3.06 9 0 9 C0 6.03 0 3.06 0 0 Z " fill="#000000" transform="translate(88,88)"/>
</svg>
